<?xml version="1.0" encoding="utf-8"?>
<svg version="1.1" id="Layer_1" xmlns="http://www.w3.org/2000/svg" xmlns:xlink="http://www.w3.org/1999/xlink" x="0px" y="0px"
	 viewBox="0 0 122.9 105.6" style="enable-background:new 0 0 122.9 105.6;" xml:space="preserve">
<style type="text/css">
	.st0{fill:#BF6952;}
</style>
<g>
	<path class="st0" d="M14.4,14.4c1.5-0.5,3.1,0.2,3.6,1.7s-0.2,3.1-1.7,3.6c-1.1,0.4-2.1,0.9-2.9,1.5l-0.1,0.1
		c-0.6,0.5-1.2,1.1-1.6,1.8c-1.6,2.7-0.8,4.9-0.1,7.1c0.9,2.8,1.8,5.7,0.4,9.5c-0.6,1.6-1.5,3.1-2.8,4.5c-1.2,1.4-2.8,2.7-4.8,4
		c-1.3,0.9-3.1,0.5-3.9-0.8S0,44.3,1.3,43.4c1.5-1,2.7-2,3.6-3c0.8-0.9,1.4-1.8,1.7-2.7c0.7-2,0.1-3.8-0.5-5.7
		C5.1,28.5,4,25.1,6.8,20.3c0.8-1.3,1.8-2.5,3-3.4l0.2-0.1C11.3,15.8,12.7,15,14.4,14.4L14.4,14.4z M102.7,8.4
		c0.7-1.4,2.4-2,3.8-1.4s2,2.4,1.4,3.8c-0.5,1.1-0.8,2.2-1,3.1c-0.1,0.9-0.1,1.8,0.1,2.6c0.8,3,2.8,4,4.9,5.1c2.7,1.4,5.3,2.7,7,6.4
		l0.1,0.3c0.6,1.5,1,3.1,1.1,4.9v0.1c0.1,1.8-0.1,3.8-0.6,6.1c-0.3,1.5-1.8,2.5-3.4,2.2s-2.5-1.8-2.2-3.4c0.4-1.8,0.5-3.3,0.4-4.7v0
		c-0.1-1.2-0.3-2.1-0.6-3l-0.1-0.2c-0.9-1.9-2.6-2.8-4.4-3.7c-3.2-1.6-6.4-3.3-7.8-8.7c-0.4-1.6-0.5-3.2-0.3-4.8
		C101.4,11.6,101.9,10,102.7,8.4L102.7,8.4z M87.6,34c-0.5-5.5-5.4-9.2-9.8-12.6c-2.1-1.6-4-3.1-5.7-4.8c-4.2-4.4-5.8-9.1-0.3-15.8
		c-4.3-1-8.6-1-12.5-0.3C54.9,1.3,51,3,47.7,5.6c-3.2,2.6-5.8,5.9-7.4,10.1c-1.9,4.8-2.4,10.5-1.2,17c0.3,1.6-0.8,3.2-2.5,3.5h-0.1
		l0,0c-2.5,0.4-4.7,1.1-6.6,2c-3.7,1.9-6.5,4.8-8.2,8.3c-1.7,3.6-2.3,7.8-1.6,12.4c0.5,2.9,1.4,5.9,3,8.9c0.8,1.5,0.2,3.3-1.3,4.1
		c-0.2,0.1-0.5,0.2-0.7,0.2c-4.6,1.3-8.1,3.4-10.5,6.2c-1.7,1.9-2.8,4.1-3.3,6.5c-0.5,2.4-0.4,5,0.3,7.7c1.2,4.4,4.2,8.9,9.2,13.3
		h95.3c4.3-2.3,7.1-5.3,8.8-8.8c1.9-3.8,2.3-8.1,1.7-12.3c-0.7-4.3-2.6-8.3-5.4-11.7c-3-3.5-7.1-6.2-11.9-7.1c-0.1,0-0.1,0-0.2,0
		c-4,1.2-8.5,3.1-13.2,5.2c-14,6.1-29.9,13-45,5.5c-1.5-0.8-2.1-2.6-1.3-4.1s2.6-2.1,4.1-1.3c12.5,6.2,27-0.1,39.7-5.6
		c4.9-2.1,9.6-4.2,13.9-5.4c1.1-6.1,0.4-10.7-1.6-14.1c-2-3.3-5.5-5.7-10.1-7.3c-5,4.3-10.4,7.3-15.7,8.8
		c-5.6,1.5-11.2,1.4-16.2-0.8c-1.5-0.7-2.3-2.5-1.6-4s2.5-2.2,4-1.5c3.6,1.6,7.8,1.7,12.1,0.5C78.8,40.2,83.3,37.7,87.6,34L87.6,34
		L87.6,34z M92.1,92.8c-0.6-0.7-0.5-1.8,0.2-2.4c0.7-0.6,1.8-0.5,2.5,0.2l1.5,1.7c0.6,0.7,0.5,1.8-0.2,2.4c-0.7,0.6-1.8,0.5-2.5-0.2
		L92.1,92.8L92.1,92.8L92.1,92.8z M49.9,50.2c1.7,0,3.2,1.4,3.2,3.1c0,1.7-1.4,3.1-3.2,3.1s-3.2-1.4-3.2-3.1
		C46.7,51.5,48.1,50.2,49.9,50.2L49.9,50.2L49.9,50.2z M37.9,62.6c-0.6-0.7-0.5-1.8,0.2-2.4c0.7-0.6,1.8-0.5,2.5,0.2l1.1,1.3
		c0.6,0.7,0.5,1.8-0.2,2.4s-1.8,0.5-2.5-0.2L37.9,62.6L37.9,62.6L37.9,62.6z M49.5,24.9c2,0,3.6,1.6,3.6,3.5S51.5,32,49.5,32
		s-3.6-1.6-3.6-3.5C45.9,26.5,47.5,24.9,49.5,24.9L49.5,24.9L49.5,24.9z M60.4,86.6c1.7,0,3.2,1.4,3.2,3.1c0,1.7-1.4,3.1-3.2,3.1
		s-3.2-1.4-3.2-3.1C57.2,88,58.6,86.6,60.4,86.6L60.4,86.6L60.4,86.6z M32.4,82.1c1.7,0,3.2,1.4,3.2,3.1c0,1.7-1.4,3.1-3.2,3.1
		c-1.7,0-3.1-1.4-3.1-3.1C29.3,83.5,30.7,82.1,32.4,82.1L32.4,82.1L32.4,82.1z M105.8,84.3c1.7,0,3.2,1.4,3.2,3.1
		c0,1.7-1.4,3.1-3.2,3.1s-3.2-1.4-3.2-3.1C102.7,85.7,104.1,84.3,105.8,84.3L105.8,84.3L105.8,84.3z M49.3,98.2
		c-0.6-0.7-0.5-1.8,0.2-2.4s1.8-0.5,2.5,0.2l1.1,1.3c0.6,0.7,0.5,1.8-0.2,2.4s-1.8,0.5-2.5-0.2L49.3,98.2L49.3,98.2L49.3,98.2z
		 M21.3,93.7c-0.6-0.7-0.5-1.8,0.2-2.4s1.8-0.5,2.5,0.2l1.2,1.4c0.6,0.7,0.5,1.8-0.2,2.4s-1.8,0.5-2.5-0.2L21.3,93.7L21.3,93.7
		L21.3,93.7z"/>
</g>
</svg>
